<svg id="Layer_1" data-name="Layer 1" xmlns="http://www.w3.org/2000/svg" width="30" height="37.209" viewBox="0 0 30 37.209"><title>CTA_icon</title><g id="CTA"><path id="CTA_icon" d="M268.9,179.958a3.7,3.7,0,0,1,2.664,1.048,3.487,3.487,0,0,1,1.092,2.62v8.385a8.909,8.909,0,0,1,1.878,0,1.75,1.75,0,0,1,1.878,1.4,8.166,8.166,0,0,1,1.834,0q1.659.089,1.834,1.4a8.909,8.909,0,0,1,1.878,0,1.75,1.75,0,0,1,1.878,1.4,8.909,8.909,0,0,1,1.878,0,1.75,1.75,0,0,1,1.878,1.4v6.551a29.492,29.492,0,0,1-2.8,6.507,29.331,29.331,0,0,0-2.8,6.507H267.063a72.742,72.742,0,0,0-2.577-6.988,23.436,23.436,0,0,0-6.769-9.783q-.351-.959.262-4.411t7.25,2.577V183.627a3.582,3.582,0,0,1,3.668-3.668Z" transform="translate(-257.589 -179.958)" fill="#7cab3c"/></g></svg>