<svg id="Layer_1" width="150" height="40" data-name="Layer_1" xmlns="http://www.w3.org/2000/svg" viewBox="0 0 150 40"><defs><style>.cls-1{fill:#fff;}</style></defs><g id="Layer_2" data-name="Layer 2"><g id="Layer_1-2" data-name="Layer 1-2"><g id="_Group_" data-name=" Group "><path id="_Path_" data-name=" Path " class="cls-1" d="M10.52,19.2l14-14A16.9,16.9,0,0,0,2.94,11.63Z"/><path id="_Path_2" data-name=" Path 2" class="cls-1" d="M18.55,13.69l14,14A16.9,16.9,0,0,0,26.15,6.09Z"/><path id="_Path_3" data-name=" Path 3" class="cls-1" d="M24.07,21.72l-14,14a16.88,16.88,0,0,0,21.63-6.41Z"/><path id="_Path_4" data-name=" Path 4" class="cls-1" d="M16,27.24l-14-14a16.89,16.89,0,0,0,6.38,21.6Z"/></g><path class="cls-1" d="M43.31,28V13.36h5.31a7.8,7.8,0,0,1,3.13.58,6.38,6.38,0,0,1,3.61,3.89,9.05,9.05,0,0,1,.46,2.82,8.5,8.5,0,0,1-.51,3A6.5,6.5,0,0,1,53.86,26a6.66,6.66,0,0,1-2.26,1.48,8.58,8.58,0,0,1-3,.53ZM53,20.65a7,7,0,0,0-.28-1.93,4.45,4.45,0,0,0-.84-1.52,3.76,3.76,0,0,0-1.37-1,4.73,4.73,0,0,0-1.86-.35H46.16v9.63h2.46a4.59,4.59,0,0,0,1.86-.38,3.58,3.58,0,0,0,1.35-1,4.45,4.45,0,0,0,.84-1.52,6.2,6.2,0,0,0,.3-1.91Z"/><path class="cls-1" d="M69.11,25.48V28H58.05V13.36H69.11v2.49H60.9v3.51h8.21v2.31H60.9v3.81Z"/><path class="cls-1" d="M99.64,28V15.34l-5.59,8.59-5.59-8.59V28h-1V13.36h1L94.05,22l5.59-8.67h1V28Z"/><path class="cls-1" d="M114.36,27V28H104.14V13.36h10v.94h-9V20h9.18V21h-9.18V27Z"/><path class="cls-1" d="M117.16,28V13.36h5.39a7.23,7.23,0,0,1,3,.58,5.76,5.76,0,0,1,2.16,1.58,6.78,6.78,0,0,1,1.3,2.31,9.11,9.11,0,0,1,.43,2.82,8.78,8.78,0,0,1-.48,3,6.52,6.52,0,0,1-1.4,2.31,6.29,6.29,0,0,1-2.19,1.48,8,8,0,0,1-2.87.53Zm11.28-7.32a8.36,8.36,0,0,0-.38-2.54,5.66,5.66,0,0,0-1.14-2,5.48,5.48,0,0,0-1.86-1.32,6.52,6.52,0,0,0-2.51-.48H118.2V27h4.35a6.41,6.41,0,0,0,2.54-.48,4.94,4.94,0,0,0,1.83-1.35,5.74,5.74,0,0,0,1.12-2A7.59,7.59,0,0,0,128.44,20.65Z"/><path class="cls-1" d="M132.18,28V13.36h1V28Z"/><path class="cls-1" d="M141.71,13.36h.94L149,28h-1.15l-1.52-3.5-8.34.05L136.48,28h-1.17ZM146,23.45l-3.78-8.82-3.87,8.84Z"/><polygon class="cls-1" points="82.38 13.36 77.88 24.67 77.88 24.64 77.86 24.67 73.38 13.36 70.56 13.36 76.25 27.97 77.88 27.97 79.51 27.97 85.2 13.36 82.38 13.36"/></g></g></svg>