<svg id="Layer_1" data-name="Layer 1" xmlns="http://www.w3.org/2000/svg" width="1840" height="1840" viewBox="0 0 1840 1840"><title>sc_a</title><g id="semicircles_2"><g id="sc_a_2"><g id="sc_1"><path d="M120,300a30,30,0,0,1,60,0" transform="translate(770 620)" fill="none" stroke="#fff" stroke-miterlimit="10" stroke-width="20" opacity="0.2"/><path d="M180,300a30,30,0,0,1-60,0" transform="translate(770 620)" fill="none" stroke="#fff" stroke-miterlimit="10" stroke-width="20" opacity="0"/></g><g id="sc_3"><path d="M260,300a110,110,0,0,1-220,0" transform="translate(770 620)" fill="none" stroke="#fff" stroke-miterlimit="10" stroke-width="20" opacity="0.2"/><path d="M40,300a110,110,0,0,1,220,0" transform="translate(770 620)" fill="none" stroke="#fff" stroke-miterlimit="10" stroke-width="20" opacity="0"/></g><g id="sc_5"><path d="M-40,300c0-104.934,85.066-190,190-190s190,85.066,190,190" transform="translate(770 620)" fill="none" stroke="#fff" stroke-miterlimit="10" stroke-width="20" opacity="0.2"/><path d="M340,300c0,104.934-85.066,190-190,190S-40,404.934-40,300" transform="translate(770 620)" fill="none" stroke="#fff" stroke-miterlimit="10" stroke-width="20" opacity="0"/></g><g id="sc_7"><path d="M420,300c0,149.117-120.883,270-270,270S-120,449.117-120,300" transform="translate(770 620)" fill="none" stroke="#fff" stroke-miterlimit="10" stroke-width="20" opacity="0.2"/><path d="M-120,300C-120,150.883.883,30,150,30S420,150.883,420,300" transform="translate(770 620)" fill="none" stroke="#fff" stroke-miterlimit="10" stroke-width="20" opacity="0"/></g><g id="sc_9"><path d="M-200,300C-200,106.7-43.3-50,150-50S500,106.7,500,300" transform="translate(770 620)" fill="none" stroke="#fff" stroke-miterlimit="10" stroke-width="20" opacity="0.2"/><path d="M500,300c0,193.3-156.7,350-350,350S-200,493.3-200,300" transform="translate(770 620)" fill="none" stroke="#fff" stroke-miterlimit="10" stroke-width="20" opacity="0"/></g><g id="sc_11"><path d="M580,300c0,237.482-192.518,430-430,430S-280,537.482-280,300" transform="translate(770 620)" fill="none" stroke="#fff" stroke-miterlimit="10" stroke-width="20" opacity="0.2"/><path d="M-280,300c0-237.482,192.518-430,430-430S580,62.518,580,300" transform="translate(770 620)" fill="none" stroke="#fff" stroke-miterlimit="10" stroke-width="20" opacity="0"/></g><g id="sc_13"><path d="M-360,300c0-281.665,228.335-510,510-510S660,18.335,660,300" transform="translate(770 620)" fill="none" stroke="#fff" stroke-miterlimit="10" stroke-width="20" opacity="0.2"/><path d="M660,300c0,281.665-228.335,510-510,510S-360,581.665-360,300" transform="translate(770 620)" fill="none" stroke="#fff" stroke-miterlimit="10" stroke-width="20" opacity="0"/></g><g id="sc_15"><path d="M740,300c0,325.848-264.152,590-590,590S-440,625.848-440,300" transform="translate(770 620)" fill="none" stroke="#fff" stroke-miterlimit="10" stroke-width="20" opacity="0.2"/><path d="M-440,300c0-325.848,264.152-590,590-590S740-25.848,740,300" transform="translate(770 620)" fill="none" stroke="#fff" stroke-miterlimit="10" stroke-width="20" opacity="0"/></g><g id="sc_17"><path d="M-520,300c0-370.031,299.969-670,670-670S820-70.031,820,300" transform="translate(770 620)" fill="none" stroke="#fff" stroke-miterlimit="10" stroke-width="20" opacity="0.2"/><path d="M820,300c0,370.031-299.969,670-670,670S-520,670.031-520,300" transform="translate(770 620)" fill="none" stroke="#fff" stroke-miterlimit="10" stroke-width="20" opacity="0"/></g><g id="sc_19"><path d="M900,300c0,414.214-335.786,750-750,750S-600,714.214-600,300" transform="translate(770 620)" fill="none" stroke="#fff" stroke-miterlimit="10" stroke-width="20" opacity="0.2"/><path d="M-600,300c0-414.214,335.786-750,750-750S900-114.214,900,300" transform="translate(770 620)" fill="none" stroke="#fff" stroke-miterlimit="10" stroke-width="20" opacity="0"/></g><g id="sc_21"><path d="M-680,300c0-458.4,371.6-830,830-830S980-158.4,980,300" transform="translate(770 620)" fill="none" stroke="#fff" stroke-miterlimit="10" stroke-width="20" opacity="0.2"/><path d="M980,300c0,458.4-371.6,830-830,830S-680,758.4-680,300" transform="translate(770 620)" fill="none" stroke="#fff" stroke-miterlimit="10" stroke-width="20" opacity="0"/></g><g id="sc_23"><path d="M1060,300c0,502.579-407.421,910-910,910S-760,802.579-760,300" transform="translate(770 620)" fill="none" stroke="#fff" stroke-miterlimit="10" stroke-width="20" opacity="0.2"/><path d="M-760,300c0-502.579,407.421-910,910-910s910,407.421,910,910" transform="translate(770 620)" fill="none" stroke="#fff" stroke-miterlimit="10" stroke-width="20" opacity="0"/></g></g></g></svg>