<svg id="Layer_1" data-name="Layer 1" xmlns="http://www.w3.org/2000/svg" width="1920" height="1920" viewBox="0 0 1920 1920"><title>sc_b</title><g id="semicircles_2"><g id="sc_b_2"><g id="sc_2"><path d="M150,370a70,70,0,0,1,0-140" transform="translate(810 660)" fill="none" stroke="#fff" stroke-miterlimit="10" stroke-width="20" opacity="0.2"/><path d="M150,230a70,70,0,0,1,0,140" transform="translate(810 660)" fill="none" stroke="#fff" stroke-miterlimit="10" stroke-width="20" opacity="0"/></g><g id="sc_4"><path d="M150,150a150,150,0,0,1,0,300" transform="translate(810 660)" fill="none" stroke="#fff" stroke-miterlimit="10" stroke-width="20" opacity="0.2"/><path d="M150,450a150,150,0,0,1,0-300" transform="translate(810 660)" fill="none" stroke="#fff" stroke-miterlimit="10" stroke-width="20" opacity="0"/></g><g id="sc_6"><path d="M150,530C22.975,530-80,427.025-80,300S22.975,70,150,70" transform="translate(810 660)" fill="none" stroke="#fff" stroke-miterlimit="10" stroke-width="20" opacity="0.2"/><path d="M150,70c127.025,0,230,102.975,230,230S277.025,530,150,530" transform="translate(810 660)" fill="none" stroke="#fff" stroke-miterlimit="10" stroke-width="20" opacity="0"/></g><g id="sc_8"><path d="M150-10c171.208,0,310,138.792,310,310S321.208,610,150,610" transform="translate(810 660)" fill="none" stroke="#fff" stroke-miterlimit="10" stroke-width="20" opacity="0.2"/><path d="M150,610c-171.208,0-310-138.792-310-310S-21.208-10,150-10" transform="translate(810 660)" fill="none" stroke="#fff" stroke-miterlimit="10" stroke-width="20" opacity="0"/></g><g id="sc_10"><path d="M150,690c-215.391,0-390-174.609-390-390S-65.391-90,150-90" transform="translate(810 660)" fill="none" stroke="#fff" stroke-miterlimit="10" stroke-width="20" opacity="0.2"/><path d="M150-90C365.391-90,540,84.609,540,300S365.391,690,150,690" transform="translate(810 660)" fill="none" stroke="#fff" stroke-miterlimit="10" stroke-width="20" opacity="0"/></g><g id="sc_12"><path d="M150-170c259.574,0,470,210.426,470,470S409.574,770,150,770" transform="translate(810 660)" fill="none" stroke="#fff" stroke-miterlimit="10" stroke-width="20" opacity="0.2"/><path d="M150,770c-259.574,0-470-210.426-470-470s210.426-470,470-470" transform="translate(810 660)" fill="none" stroke="#fff" stroke-miterlimit="10" stroke-width="20" opacity="0"/></g><g id="sc_14"><path d="M150,850c-303.757,0-550-246.243-550-550s246.243-550,550-550" transform="translate(810 660)" fill="none" stroke="#fff" stroke-miterlimit="10" stroke-width="20" opacity="0.2"/><path d="M150-250C453.757-250,700-3.757,700,300S453.757,850,150,850" transform="translate(810 660)" fill="none" stroke="#fff" stroke-miterlimit="10" stroke-width="20" opacity="0"/></g><g id="sc_16"><path d="M150-330c347.939,0,630,282.061,630,630S497.939,930,150,930" transform="translate(810 660)" fill="none" stroke="#fff" stroke-miterlimit="10" stroke-width="20" opacity="0.2"/><path d="M150,930c-347.939,0-630-282.061-630-630s282.061-630,630-630" transform="translate(810 660)" fill="none" stroke="#fff" stroke-miterlimit="10" stroke-width="20" opacity="0"/></g><g id="sc_18"><path d="M150,1010c-392.122,0-710-317.878-710-710s317.878-710,710-710" transform="translate(810 660)" fill="none" stroke="#fff" stroke-miterlimit="10" stroke-width="20" opacity="0.2"/><path d="M150-410c392.122,0,710,317.878,710,710s-317.878,710-710,710" transform="translate(810 660)" fill="none" stroke="#fff" stroke-miterlimit="10" stroke-width="20" opacity="0"/></g><g id="sc_20"><path d="M150-490c436.3,0,790,353.7,790,790s-353.7,790-790,790" transform="translate(810 660)" fill="none" stroke="#fff" stroke-miterlimit="10" stroke-width="20" opacity="0.2"/><path d="M150,1090c-436.3,0-790-353.7-790-790s353.7-790,790-790" transform="translate(810 660)" fill="none" stroke="#fff" stroke-miterlimit="10" stroke-width="20" opacity="0"/></g><g id="sc_22"><path d="M150,1170c-480.488,0-870-389.512-870-870s389.512-870,870-870" transform="translate(810 660)" fill="none" stroke="#fff" stroke-miterlimit="10" stroke-width="20" opacity="0.2"/><path d="M150-570c480.488,0,870,389.512,870,870s-389.512,870-870,870" transform="translate(810 660)" fill="none" stroke="#fff" stroke-miterlimit="10" stroke-width="20" opacity="0"/></g><g id="sc_24"><path d="M150-650c524.671,0,950,425.329,950,950s-425.329,950-950,950" transform="translate(810 660)" fill="none" stroke="#fff" stroke-miterlimit="10" stroke-width="20" opacity="0.2"/><path d="M150,1250c-524.671,0-950-425.329-950-950s425.329-950,950-950" transform="translate(810 660)" fill="none" stroke="#fff" stroke-miterlimit="10" stroke-width="20" opacity="0"/></g></g></g></svg>